<svg width="32" height="33" viewBox="0 0 32 33" fill="none" xmlns="http://www.w3.org/2000/svg">
<path d="M11 27.5C11.5523 27.5 12 27.0523 12 26.5C12 25.9477 11.5523 25.5 11 25.5C10.4477 25.5 10 25.9477 10 26.5C10 27.0523 10.4477 27.5 11 27.5Z" stroke="black" stroke-width="1.5" stroke-linecap="round" stroke-linejoin="round"/>
<path d="M25 27.5C25.5523 27.5 26 27.0523 26 26.5C26 25.9477 25.5523 25.5 25 25.5C24.4477 25.5 24 25.9477 24 26.5C24 27.0523 24.4477 27.5 25 27.5Z" stroke="black" stroke-width="1.5" stroke-linecap="round" stroke-linejoin="round"/>
<path d="M3 5.5H7L10 22.5H26" stroke="black" stroke-width="1.5" stroke-linecap="round" stroke-linejoin="round"/>
<path d="M10 17.1667H25.59C25.7056 17.1667 25.8177 17.1267 25.9072 17.0535C25.9966 16.9802 26.0579 16.8782 26.0806 16.7648L27.8806 7.76479C27.8951 7.69222 27.8934 7.61733 27.8755 7.54552C27.8575 7.47372 27.8239 7.40679 27.7769 7.34956C27.73 7.29234 27.6709 7.24625 27.604 7.21462C27.5371 7.18299 27.464 7.16661 27.39 7.16667H8" stroke="black" stroke-width="1.5" stroke-linecap="round" stroke-linejoin="round"/>
</svg>
