<svg width="20" height="20" viewBox="0 0 20 20" fill="none" xmlns="http://www.w3.org/2000/svg">
<path d="M9.99985 1.83329C9.75075 1.83145 9.50623 1.90032 9.29471 2.0319C9.08318 2.16348 8.91332 2.35236 8.80485 2.57662L6.95318 6.32995L2.80985 6.93162C2.56341 6.96713 2.33183 7.07094 2.14134 7.23129C1.95086 7.39163 1.80908 7.60212 1.73206 7.83889C1.65504 8.07567 1.64586 8.32929 1.70556 8.57101C1.76526 8.81274 1.89146 9.03292 2.06985 9.20662L5.06985 12.1283L4.36152 16.255C4.31938 16.5001 4.34665 16.7521 4.44024 16.9825C4.53383 17.213 4.69001 17.4126 4.89113 17.559C5.09225 17.7053 5.33029 17.7925 5.57834 17.8106C5.8264 17.8287 6.07459 17.7771 6.29485 17.6616L9.99985 15.7133V1.83329Z" fill="#FFAD33"/>
<path opacity="0.25" d="M10 1.83595C10.2491 1.83404 10.5001 2.00001 10.5001 2.00001C10.5001 2.00001 11.0865 2.20807 11.195 2.44195L13.0467 6.35634L17.1901 6.98383C17.4366 7.02086 17.6682 7.12912 17.8586 7.29635C18.0491 7.46358 18.1909 7.68309 18.2679 7.93003C18.345 8.17697 18.3541 8.44147 18.2944 8.69357C18.2347 8.94567 18.1085 9.1753 17.9301 9.35645L14.9301 12.4035L15.6384 16.7072C15.6806 16.9629 15.6533 17.2257 15.5597 17.466C15.4661 17.7064 15.3099 17.9146 15.1088 18.0672C14.9077 18.2198 14.6696 18.3107 14.4216 18.3296C14.1735 18.3486 13.9253 18.2947 13.7051 18.1743L10 16.1423V1.83595Z" fill="black"/>
</svg>
